<?xml version="1.0" encoding="utf-8"?>
<!-- Generator: Adobe Illustrator 26.0.2, SVG Export Plug-In . SVG Version: 6.00 Build 0)  -->
<svg version="1.1" id="Layer_1" xmlns="http://www.w3.org/2000/svg" xmlns:xlink="http://www.w3.org/1999/xlink" x="0px" y="0px"
	 viewBox="0 0 500 400" style="enable-background:new 0 0 500 400;" xml:space="preserve">
<style type="text/css">
	.st0{fill-rule:evenodd;clip-rule:evenodd;fill:#252B32;}
	.st1{fill-rule:evenodd;clip-rule:evenodd;fill:#004BBD;}
	.st2{fill:url(#SVGID_1_);}
	.st3{fill:url(#SVGID_00000064336312232780716810000005213940322195405988_);}
	.st4{fill:url(#SVGID_00000025435509204632736820000011741485340944556419_);}
	.st5{fill:url(#SVGID_00000054969238802433189070000015236020587189765010_);}
	.st6{fill:url(#SVGID_00000150062502972122779690000011621491908282747023_);}
	.st7{fill:url(#SVGID_00000038379327663529316540000000312394739379821750_);}
	.st8{fill:#252B32;}
</style>
<g>
	<g>
		<path class="st0" d="M177.66,124.89l5.84,1.56c1.26,0.34,1.74,1.61,1.68,2.9l-0.37,6.96c3.61,1.64,7.09,3.65,10.4,6.01l5.85-3.81
			c1.09-0.71,2.43-0.92,3.35,0l9.1,9.1c0.92,0.92,0.71,2.27,0,3.36l-3.8,5.84c2.37,3.31,4.37,6.79,6.01,10.4l6.96-0.37
			c1.3-0.07,2.57,0.42,2.9,1.68l3.33,12.43c0.34,1.26-0.52,2.32-1.68,2.9l-6.23,3.16l0.04,0.4C207,167.86,184.11,155.58,159,155.58
			c-8.08,0-16.07,1.26-23.71,3.76c6.15-11.4,15.3-20.87,26.33-27.43C166.3,129.12,172.36,126.46,177.66,124.89L177.66,124.89z"/>
		<path class="st1" d="M90.86,174.36l1.56-5.84c0.34-1.26,1.61-1.75,2.9-1.68l6.96,0.37c1.64-3.61,3.64-7.09,6.01-10.4l-3.8-5.85
			c-0.71-1.09-0.92-2.43,0-3.36l9.1-9.1c0.92-0.92,2.27-0.71,3.36,0l5.84,3.8c3.3-2.37,6.79-4.37,10.4-6.01l-0.37-6.96
			c-0.07-1.3,0.42-2.57,1.68-2.9l12.43-3.33c1.26-0.34,2.32,0.51,2.9,1.68l3.16,6.23l0.4-0.04c-19.56,14.04-31.85,36.92-31.85,62.03
			c0,8.08,1.27,16.07,3.76,23.72c-11.4-6.15-20.87-15.29-27.43-26.32C95.09,185.72,92.43,179.66,90.86,174.36L90.86,174.36z"/>
		<path class="st0" d="M140.34,261.16l-5.84-1.57c-1.26-0.33-1.75-1.6-1.68-2.9l0.37-6.96c-3.61-1.64-7.09-3.64-10.39-6.01
			l-5.85,3.81c-1.09,0.71-2.43,0.92-3.36,0l-9.1-9.1c-0.92-0.92-0.71-2.26,0-3.36l3.8-5.84c-2.37-3.31-4.37-6.79-6.01-10.4
			l-6.96,0.37c-1.3,0.07-2.56-0.42-2.9-1.68l-3.33-12.43c-0.34-1.26,0.51-2.32,1.68-2.91l6.23-3.16l-0.04-0.4
			c14.04,19.56,36.92,31.85,62.03,31.85c8.08,0,16.08-1.26,23.72-3.76c-6.15,11.4-15.3,20.87-26.32,27.43
			C151.7,256.93,145.64,259.59,140.34,261.16L140.34,261.16z"/>
		<path class="st1" d="M227.14,211.68l-1.57,5.84c-0.34,1.26-1.6,1.75-2.9,1.68l-6.96-0.37c-1.64,3.61-3.64,7.09-6.01,10.4
			l3.81,5.84c0.71,1.1,0.92,2.44,0,3.36l-9.1,9.1c-0.92,0.92-2.26,0.71-3.35,0l-5.85-3.8c-3.3,2.37-6.79,4.37-10.4,6.01l0.37,6.96
			c0.07,1.3-0.42,2.57-1.68,2.9l-12.43,3.33c-1.26,0.34-2.32-0.52-2.91-1.68l-3.16-6.22l-0.4,0.03
			c19.56-14.04,31.85-36.92,31.85-62.04c0-8.08-1.26-16.07-3.76-23.72c11.4,6.15,20.87,15.3,27.43,26.32
			C222.9,200.32,225.56,206.38,227.14,211.68L227.14,211.68z"/>
		
			<linearGradient id="SVGID_1_" gradientUnits="userSpaceOnUse" x1="-55.3534" y1="606.2068" x2="-53.9281" y2="606.2068" gradientTransform="matrix(35.8093 11.7008 -8.7237 26.6983 7432.9238 -15382.7207)">
			<stop  offset="0" style="stop-color:#505050"/>
			<stop  offset="1" style="stop-color:#252B32"/>
		</linearGradient>
		<path class="st2" d="M228.9,180.95l-3.33-12.43c-0.34-1.26-1.6-1.75-2.9-1.68l-6.96,0.37c-1.64-3.61-3.64-7.09-6-10.41
			c-15.68-8.07-34.09-10.69-52.17-6.5c-7.87,1.83-15.37,4.86-22.25,9.02c7.64-2.5,15.64-3.76,23.71-3.76
			c25.11,0,48,12.29,62.04,31.84l-0.04-0.4l6.23-3.16C228.39,183.27,229.24,182.21,228.9,180.95z"/>
		
			<linearGradient id="SVGID_00000030476976740615001110000018333127728981615773_" gradientUnits="userSpaceOnUse" x1="-62.788" y1="594.9899" x2="-61.3627" y2="594.9899" gradientTransform="matrix(11.7007 -35.809 26.6983 8.7237 -15030.2861 -7249.2573)">
			<stop  offset="0" style="stop-color:#009FE8"/>
			<stop  offset="1" style="stop-color:#004BBD"/>
		</linearGradient>
		<path style="fill:url(#SVGID_00000030476976740615001110000018333127728981615773_);" d="M153,131.02l-3.16-6.23
			c-0.59-1.16-1.64-2.01-2.9-1.68l-12.43,3.33c-1.26,0.34-1.75,1.61-1.68,2.9l0.37,6.96c-3.61,1.64-7.09,3.64-10.41,6
			c-8.06,15.68-10.69,34.09-6.5,52.17c1.83,7.87,4.86,15.37,9.02,22.25c-2.5-7.64-3.76-15.64-3.76-23.72
			c0-25.11,12.29-48,31.85-62.03L153,131.02z"/>
		
			<linearGradient id="SVGID_00000101785627512127266830000009938647506668708230_" gradientUnits="userSpaceOnUse" x1="-54.4272" y1="585.0087" x2="-53.0017" y2="585.0087" gradientTransform="matrix(-35.8093 -11.7008 8.7237 -26.6983 -6896.8896 15213.6279)">
			<stop  offset="0" style="stop-color:#505050"/>
			<stop  offset="1" style="stop-color:#252B32"/>
		</linearGradient>
		<path style="fill:url(#SVGID_00000101785627512127266830000009938647506668708230_);" d="M159,230.47
			c-25.11,0-48-12.29-62.03-31.85l0.04,0.4l-6.23,3.16c-1.16,0.59-2.02,1.64-1.68,2.91l3.33,12.43c0.34,1.26,1.61,1.75,2.9,1.68
			l6.96-0.37c1.64,3.61,3.64,7.09,6,10.41c15.68,8.06,34.09,10.68,52.17,6.5c7.87-1.83,15.38-4.86,22.25-9.02
			C175.07,229.21,167.08,230.47,159,230.47z"/>
		
			<linearGradient id="SVGID_00000158004358270187307870000009524396210800206495_" gradientUnits="userSpaceOnUse" x1="-46.9706" y1="596.2639" x2="-45.5443" y2="596.2639" gradientTransform="matrix(-11.7009 35.8098 -26.6985 -8.7238 15567.5166 7080.0015)">
			<stop  offset="0" style="stop-color:#009FE8"/>
			<stop  offset="1" style="stop-color:#004BBD"/>
		</linearGradient>
		<path style="fill:url(#SVGID_00000158004358270187307870000009524396210800206495_);" d="M201.71,191.56
			c-1.82-7.87-4.86-15.38-9.02-22.26c2.5,7.64,3.76,15.64,3.76,23.72c0,25.11-12.29,48-31.85,62.04l0.4-0.03l3.16,6.22
			c0.59,1.16,1.65,2.02,2.91,1.68l12.43-3.33c1.26-0.33,1.74-1.6,1.68-2.9l-0.37-6.96c3.61-1.64,7.09-3.64,10.41-6
			C203.28,228.05,205.9,209.64,201.71,191.56z"/>
	</g>
	
		<linearGradient id="SVGID_00000073696285737615054220000008633945407331833009_" gradientUnits="userSpaceOnUse" x1="131.9321" y1="187.0705" x2="169.8578" y2="187.0705">
		<stop  offset="0" style="stop-color:#009FE8"/>
		<stop  offset="1" style="stop-color:#004BBD"/>
	</linearGradient>
	<path style="fill:url(#SVGID_00000073696285737615054220000008633945407331833009_);" d="M157.98,186.44l2.47-5.04l0,0
		c4.02,0.71,7.4,3.44,8.94,7.22l0.47,1.15l-5.32,8.65l-0.19,7.6l-1.28,0.56c-3.25,1.41-6.93,1.44-10.21,0.08l-1.53-0.64l-0.1-7.32
		l-19.3-30.51v-1.71h14.54L157.98,186.44z"/>
	
		<linearGradient id="SVGID_00000041990755800594586490000008557261945884811455_" gradientUnits="userSpaceOnUse" x1="169.1924" y1="170.1433" x2="183.7353" y2="170.1433">
		<stop  offset="0" style="stop-color:#009FE8"/>
		<stop  offset="1" style="stop-color:#004BBD"/>
	</linearGradient>
	<path style="fill:url(#SVGID_00000041990755800594586490000008557261945884811455_);" d="M183.74,166.58h-14.54
		c0,0,5.99,2,10.84,7.13l3.71-5.69V166.58z"/>
	<g>
		<path class="st8" d="M156.42,179.2c0.51-0.05,1.03-0.08,1.56-0.08c6.81,0,12.57,4.48,14.51,10.65h12.96
			c-2.18-13.21-13.65-23.29-27.48-23.29c-2.84,0-5.59,0.43-8.17,1.22L156.42,179.2z"/>
		<path class="st8" d="M172.55,198.71c-1.88,6.27-7.69,10.84-14.57,10.84c-8.4,0-15.21-6.81-15.21-15.21c0-1.5,0.22-2.94,0.62-4.31
			l-7.81-12.25c-3.43,4.63-5.46,10.36-5.46,16.56c0,15.38,12.47,27.85,27.85,27.85c13.89,0,25.41-10.17,27.51-23.48H172.55z"/>
	</g>
</g>
<g>
	<path d="M262.01,164.93l10.59-0.39c-0.3,3.97-1.84,7.24-4.6,9.8c-2.76,2.56-6.12,3.84-10.07,3.84c-4.19,0-7.72-1.41-10.6-4.22
		c-2.88-2.81-4.32-6.26-4.32-10.35c0-3.88,1.46-7.2,4.37-9.96c2.91-2.76,6.4-4.14,10.47-4.14c3.56,0,6.7,1.09,9.42,3.26
		c2.72,2.17,4.41,4.94,5.08,8.31l-10.82,0.39c-0.93-1.18-2.11-1.77-3.54-1.77c-1.22,0-2.22,0.39-3,1.16
		c-0.78,0.77-1.17,1.75-1.17,2.93c0,1.2,0.41,2.2,1.24,3.01c0.83,0.81,1.86,1.21,3.1,1.21
		C259.96,167.99,261.25,166.97,262.01,164.93z"/>
	<path d="M283.85,189.65v-8.97c1.45,0.59,2.71,0.88,3.79,0.88c3.46,0,5.71-1.89,6.74-5.66c-1.87,1.07-3.69,1.6-5.48,1.6
		c-2.64,0-4.82-0.95-6.54-2.86c-1.71-1.9-2.57-4.33-2.57-7.27v-17.3h10.67v14.79c0,1.64,0.7,2.46,2.11,2.46
		c1.35,0,2.03-0.9,2.03-2.7v-14.54h10.67v24.56c0,4.58-1.33,8.28-4,11.09c-3.18,3.35-7.02,5.02-11.53,5.02
		C287.78,190.75,285.81,190.39,283.85,189.65z"/>
	<path d="M330.24,167.27v10.68c-0.88,0.15-1.67,0.22-2.4,0.22c-4.28,0-7.85-1.36-10.7-4.08c-2.85-2.72-4.28-6.14-4.28-10.24
		c0-3.99,1.44-7.38,4.32-10.16c2.88-2.78,6.39-4.17,10.52-4.17c4.6,0,8.23,1.3,10.89,3.9c2.65,2.6,3.98,6.16,3.98,10.67v13.49H331.9
		v-12.75c0-1.45-0.37-2.61-1.1-3.48c-0.73-0.86-1.72-1.3-2.95-1.3c-1.12,0-2.09,0.4-2.91,1.19c-0.82,0.79-1.23,1.73-1.23,2.81
		c0,1.14,0.37,2.08,1.11,2.81c0.74,0.74,1.68,1.1,2.83,1.1C328.58,167.99,329.44,167.75,330.24,167.27z"/>
	<path d="M367.33,149.8v11.04c-0.74-0.4-1.42-0.61-2.03-0.61c-1.94,0-2.91,1.44-2.91,4.3v13.05h-10.67v-15.04
		c0-3.97,1.12-7.14,3.37-9.51c2.25-2.36,5.24-3.55,8.99-3.55C364.91,149.5,366,149.6,367.33,149.8z"/>
	<path d="M382.89,139.92v10.54h4.79v10.9h-4.79c0,2.19,0.36,3.7,1.07,4.53c0.71,0.83,2.02,1.24,3.92,1.24v10.84
		c-0.55,0.02-0.96,0.03-1.23,0.03c-2.42,0-4.69-0.54-6.83-1.63c-2.14-1.08-3.86-2.56-5.15-4.42c-1.64-2.37-2.46-5.52-2.46-9.44
		v-22.6H382.89z"/>
	<path d="M399.54,189.65v-8.97c1.45,0.59,2.71,0.88,3.79,0.88c3.46,0,5.71-1.89,6.74-5.66c-1.87,1.07-3.69,1.6-5.48,1.6
		c-2.64,0-4.82-0.95-6.54-2.86c-1.71-1.9-2.57-4.33-2.57-7.27v-17.3h10.67v14.79c0,1.64,0.7,2.46,2.11,2.46
		c1.35,0,2.03-0.9,2.03-2.7v-14.54h10.67v24.56c0,4.58-1.33,8.28-4,11.09c-3.18,3.35-7.02,5.02-11.53,5.02
		C403.47,190.75,401.5,190.39,399.54,189.65z"/>
</g>
<g>
	<path d="M263.82,242.98c-5.43,0-9.73-1.57-12.9-4.72c-3.17-3.15-4.53-7.05-4.1-11.72c0.25-2.75,0.94-4.91,2.05-6.47l9.66-3.81
		c-1.66,3.06-2.48,6.49-2.48,10.28c0,5.15,2.59,7.72,7.77,7.72h4.16v-12.99c0-1.46,0.17-2.79,0.51-3.99s0.94-2.38,1.78-3.55
		c0.84-1.17,2.11-2.09,3.78-2.77s3.7-1.04,6.07-1.07c3.27-0.03,7.02,0.28,11.23,0.94v13.15c0,1.18,0.1,1.89,0.3,2.11
		c0.2,0.23,0.66,0.34,1.38,0.34h0.97v8.77h-3.24c-3.53,0-5.83-0.5-6.91-1.51c-1.08-1.01-1.62-2.97-1.62-5.9v-9.5h-1.67
		c-2.38,0-3.54,1.34-3.51,4.02v20.67H263.82z M263.66,254.94l-5.83-5.06l5.83-4.96l3.72,3.18l3.78-3.18l5.78,4.96l-5.78,5.06
		l-3.78-3.29L263.66,254.94z"/>
	<path d="M293.18,235.21v-8.77h3.94c0.65,0,1.09-0.09,1.32-0.26c0.23-0.17,0.35-0.54,0.35-1.1v-13.83l9.07-3.18v17.59
		c0,6.37-3.42,9.55-10.25,9.55H293.18z M299.6,206.4l-5.78-5.01l5.78-5.11l3.78,3.34l3.78-3.34l5.78,5.11l-5.78,5.01l-3.78-3.24
		L299.6,206.4z"/>
	<path d="M319.73,247.73l-7.34-5.32c1.15-0.8,2.11-1.64,2.89-2.53c0.77-0.89,1.37-1.72,1.78-2.5c0.41-0.78,0.72-1.81,0.92-3.08
		c0.2-1.27,0.31-2.36,0.35-3.26c0.04-0.9,0.05-2.24,0.05-4.02v-15.66l9.07-3.29v18.37c0,6.54-0.47,11.11-1.4,13.7
		C325.11,242.73,323.01,245.26,319.73,247.73z"/>
	<path d="M345.04,235.21c-6.87,0-10.31-3.18-10.31-9.55v-27.4l9.07-3.13v29.8c0,0.63,0.13,1.04,0.38,1.23
		c0.25,0.19,0.7,0.29,1.35,0.29h3.35v8.77H345.04z"/>
	<path d="M348.07,235.21v-8.77h3.13c2.45,0,3.67-1.06,3.67-3.18V211.2l9.12-3.13v17.53c0,0.1-0.01,0.25-0.03,0.44
		c-0.02,0.19-0.03,0.32-0.03,0.39h7.12v8.77h-8.85v-3.39c-1.76,2.26-5.43,3.39-11.01,3.39H348.07z M355.62,247.58l-5.78-5.11
		l5.78-4.96l3.78,3.24l3.78-3.24l5.77,4.96l-5.77,5.11l-3.78-3.29L355.62,247.58z"/>
	<path d="M370.25,235.21v-8.77h8.91v8.77H370.25z"/>
	<path d="M370.25,235.21v-8.77h8.91v8.77H370.25z"/>
	<path d="M378.35,235.21v-8.77h5.07c0.68,0,1.13-0.09,1.35-0.26c0.22-0.17,0.32-0.56,0.32-1.15v-11.85l9.07-3.18v15.66
		c0,0.35-0.02,0.61-0.05,0.78h1.83c0.68,0,1.13-0.09,1.35-0.26c0.22-0.17,0.32-0.56,0.32-1.15v-11.85l9.07-3.18v16.44h1.78
		c0.65,0,1.08-0.09,1.3-0.26c0.22-0.17,0.32-0.56,0.32-1.15v-13.78l9.12-3.18v17.59c0,6.37-3.44,9.55-10.31,9.55h-3.94v-3.34
		c-1.69,2.23-4.53,3.34-8.53,3.34h-3.99v-3.34c-1.69,2.23-4.53,3.34-8.53,3.34H378.35z"/>
</g>
</svg>
